<svg xmlns="http://www.w3.org/2000/svg" viewBox="0 0 51.043 51.043"><defs><style>.a{fill:#fff;}.b,.c{fill:#ff5200;}.c{fill-rule:evenodd;}</style></defs><g transform="translate(14965.688 -2821.903)"><circle class="a" cx="25.006" cy="25.006" r="25.006" transform="translate(-14965.173 2822.47)"/><g transform="translate(-14965.688 2821.903)"><path class="b" d="M690.822,165.9A25.52,25.52,0,1,1,665.3,191.422a25.27,25.27,0,0,1,7.476-18.046,25.668,25.668,0,0,1,18.046-7.476Zm16.653,8.92a23.525,23.525,0,1,0,6.909,16.653,23.458,23.458,0,0,0-6.909-16.653Z" transform="translate(-665.3 -165.9)"/><path class="c" d="M715.637,197.675a11.5,11.5,0,0,1-3.042.825,5.351,5.351,0,0,0,2.372-2.939,11.324,11.324,0,0,1-3.4,1.289,5.4,5.4,0,0,0-9.281,3.609,4.393,4.393,0,0,0,.155,1.186,15.218,15.218,0,0,1-11.034-5.517,5.166,5.166,0,0,0-.722,2.63,5.278,5.278,0,0,0,2.372,4.382,4.884,4.884,0,0,1-2.423-.67v.052a4.829,4.829,0,0,0,.361,1.908,5.353,5.353,0,0,0,3.918,3.248,6.491,6.491,0,0,1-1.392.206,5.711,5.711,0,0,1-.98-.1,5.346,5.346,0,0,0,5,3.661,11.015,11.015,0,0,1-6.651,2.269c-.464,0-.825-.052-1.289-.052a15.393,15.393,0,0,0,8.2,2.372,14.859,14.859,0,0,0,14.849-11.807,13.516,13.516,0,0,0,.361-3.2v-.67a8.7,8.7,0,0,0,2.63-2.681Z" transform="translate(-677.071 -180.093)"/></g></g></svg>