<svg xmlns="http://www.w3.org/2000/svg" viewBox="0 0 51.043 51.043"><defs><style>.a{fill:#fff;}.b,.c{fill:#ff5200;}.c{fill-rule:evenodd;}</style></defs><g transform="translate(14894.537 -2821.954)"><circle class="a" cx="25.006" cy="25.006" r="25.006" transform="translate(-14894.021 2822.47)"/><g transform="translate(-14894.537 2821.954)"><path class="b" d="M187.122,289a25.525,25.525,0,1,1-18.046,7.476A25.27,25.27,0,0,1,187.122,289Zm16.653,8.868a23.526,23.526,0,1,0,6.909,16.653,23.9,23.9,0,0,0-6.909-16.653Z" transform="translate(-161.6 -289)"/><path class="c" d="M201.934,313.2c-7.321,0-11.034,5.053-11.034,9.332a10.922,10.922,0,0,0,.258,2.269,4.922,4.922,0,0,0,2.887,3.454.529.529,0,0,0,.773-.361,10.045,10.045,0,0,0,.309-1.186.732.732,0,0,0-.206-.825,4.068,4.068,0,0,1-.825-1.547,5.647,5.647,0,0,1-.206-1.392,7.235,7.235,0,0,1,7.631-7.167c4.125,0,6.445,2.423,6.445,5.723a15.958,15.958,0,0,1-.258,2.784c-.67,2.99-2.372,5.207-4.64,5.207a2.326,2.326,0,0,1-2.423-2.887c.206-.876.567-1.8.825-2.733a9,9,0,0,0,.567-2.578,2.043,2.043,0,0,0-2.114-2.269c-1.65,0-2.99,1.65-2.99,3.867a5.925,5.925,0,0,0,.1,1.083,5.629,5.629,0,0,0,.412,1.289s-1.7,6.96-1.959,8.146a15.319,15.319,0,0,0-.052,5.671c0,.155.258.206.361.1a15.775,15.775,0,0,0,2.784-4.9c.155-.67,1.083-4.125,1.083-4.125a4.471,4.471,0,0,0,3.764,1.856c4.022,0,7.012-2.939,7.992-7.167a14.95,14.95,0,0,0,.361-3.094c-.052-4.434-3.918-8.559-9.848-8.559Z" transform="translate(-175.793 -300.723)"/></g></g></svg>