<svg xmlns="http://www.w3.org/2000/svg" viewBox="0 0 51.043 51.043"><defs><style>.a{fill:#fff;}.b,.c{fill:#ff5200;}.c{fill-rule:evenodd;}</style></defs><g transform="translate(15037.355 -2821.954)"><path class="a" d="M25.006,0A25.006,25.006,0,1,1,0,25.006,25.006,25.006,0,0,1,25.006,0Z" transform="translate(-15036.84 2822.47)"/><g transform="translate(-15037.355 2821.954)"><path class="b" d="M564.922,42.9a25.525,25.525,0,1,1-18.046,7.476A25.36,25.36,0,0,1,564.922,42.9Zm16.653,8.868a23.526,23.526,0,1,0,6.909,16.653,23.458,23.458,0,0,0-6.909-16.653Z" transform="translate(-539.4 -42.9)"/><path class="c" d="M578.906,82.52h-5.671c-.516,0-1.083-.052-1.6,0-.1,0-.258.1-.258.206v3.3h4.589c-.052.206-.1.412-.155.567-.67,2.114-2.836,3.145-5.207,2.733a5.045,5.045,0,0,1-4.125-6.032,4.523,4.523,0,0,1,.361-1.186,5.063,5.063,0,0,1,5.671-2.836,4.873,4.873,0,0,1,2.165,1.134l2.526-2.526c-.052-.052-.155-.1-.206-.206a8.176,8.176,0,0,0-6.96-1.908,8.537,8.537,0,0,0-7.064,7.064,8.81,8.81,0,0,0,.412,4.589,8.678,8.678,0,0,0,9.074,5.465,7.833,7.833,0,0,0,5-2.32,8.611,8.611,0,0,0,2.165-7.476c-.1-.516-.309-.567-.722-.567Zm8.507.258h-.567V80.1c0-.1-.155-.309-.206-.309-.67-.052-1.289-.052-2.011-.052v2.99h-3.042v.567c.052.516.052,1.083.1,1.65.516.052,1.031.052,1.6.052h1.392v2.99H586.9v-2.99h2.99V82.777Z" transform="translate(-550.755 -58.751)"/></g></g></svg>