<svg xmlns="http://www.w3.org/2000/svg" viewBox="0 0 51.043 51.043"><defs><style>.a{fill:#fff;}.b,.c{fill:#ff5200;}.c{fill-rule:evenodd;}</style></defs><g transform="translate(15180.173 -2821.954)"><path class="a" d="M25.006,0A25.006,25.006,0,1,1,0,25.006,25.006,25.006,0,0,1,25.006,0Z" transform="translate(-15179.657 2822.47)"/><g transform="translate(-15180.173 2821.954)"><path class="b" d="M61.222,42.9a25.525,25.525,0,1,1-18.046,7.476A25.36,25.36,0,0,1,61.222,42.9Zm16.653,8.868a23.526,23.526,0,1,0,6.909,16.653,23.9,23.9,0,0,0-6.909-16.653Z" transform="translate(-35.7 -42.9)"/><path class="c" d="M81.392,74.937V72.823a1.1,1.1,0,0,1,1.134-1.237h2.939V67.1H81.443c-4.486,0-5.465,3.3-5.465,5.465v2.372H73.4v5.207h2.629V93.189h5.207V80.144h3.815l.155-2.062.309-3.145H81.392Z" transform="translate(-53.962 -54.623)"/></g></g></svg>