<svg xmlns="http://www.w3.org/2000/svg" viewBox="0 0 51.043 51.043"><defs><style>.a{fill:#fff;}.b,.c{fill:#ff5200;}.c{fill-rule:evenodd;}</style></defs><g transform="translate(14822.871 -2821.954)"><path class="a" d="M25.006,0A25.006,25.006,0,1,1,0,25.006,25.006,25.006,0,0,1,25.006,0Z" transform="translate(-14822.355 2822.47)"/><g transform="translate(-14822.871 2821.954)"><path class="b" d="M187.122,42.9a25.525,25.525,0,1,1-18.046,7.476A25.27,25.27,0,0,1,187.122,42.9Zm16.653,8.868a23.526,23.526,0,1,0,6.909,16.653,23.9,23.9,0,0,0-6.909-16.653Z" transform="translate(-161.6 -42.9)"/><path class="c" d="M192.539,80.387a6.548,6.548,0,1,1,6.548,6.548,6.557,6.557,0,0,1-6.548-6.548Zm13.3-12.787H192.332a6.074,6.074,0,0,0-6.032,6.032V87.141a6.074,6.074,0,0,0,6.032,6.032h13.508a6.04,6.04,0,0,0,6.032-6.032V73.632a6.04,6.04,0,0,0-6.032-6.032Zm-13.508,1.5h13.508a4.511,4.511,0,0,1,4.537,4.537V87.141a4.511,4.511,0,0,1-4.537,4.537H192.332a4.511,4.511,0,0,1-4.537-4.537V73.632a4.577,4.577,0,0,1,4.537-4.537ZM207.181,71a1.341,1.341,0,1,0,1.341,1.341A1.365,1.365,0,0,0,207.181,71Zm.155,9.384a8.249,8.249,0,1,0-8.249,8.249,8.274,8.274,0,0,0,8.249-8.249Z" transform="translate(-173.565 -54.865)"/></g></g></svg>