<svg xmlns="http://www.w3.org/2000/svg" viewBox="0 0 51.043 51.043"><defs><style>.a{fill:#fff;}.b,.c{fill:#ff5200;}.c{fill-rule:evenodd;}</style></defs><g transform="translate(15108.506 -2821.954)"><path class="a" d="M25.006,0A25.006,25.006,0,1,1,0,25.006,25.006,25.006,0,0,1,25.006,0Z" transform="translate(-15107.99 2822.47)"/><g transform="translate(-15108.506 2821.954)"><path class="b" d="M690.822,289a25.525,25.525,0,1,1-18.046,7.476A25.36,25.36,0,0,1,690.822,289Zm16.653,8.868a23.525,23.525,0,1,0,6.909,16.653,23.458,23.458,0,0,0-6.909-16.653Z" transform="translate(-665.3 -289)"/><path class="c" d="M692.5,327.907V339.2h5.362V323.782H692.5Zm22.892.619c-.361-2.887-1.7-4.743-5.62-4.743-2.32,0-3.867.825-4.486,2.062h-.052v-2.062h-4.279v15.365h4.486v-7.631c0-2.011.413-3.918,2.836-3.918,2.475,0,2.681,2.269,2.681,4.073v7.476h4.589v-8.456a14.273,14.273,0,0,0-.155-2.165ZM695.181,316.1a2.681,2.681,0,1,0,2.681,2.681,2.663,2.663,0,0,0-2.681-2.681Z" transform="translate(-676.929 -304.19)"/></g></g></svg>