<svg xmlns="http://www.w3.org/2000/svg" viewBox="0 0 46.969 47.017">
  <defs>
    <style>
      .cls-1 {
        fill: #ff5200;
      }
    </style>
  </defs>
  <g id="Group_7319" data-name="Group 7319" transform="translate(15420 -1938)">
    <g id="Group_74" data-name="Group 74" transform="translate(-15420 1938)">
      <g id="Group_65" data-name="Group 65" transform="translate(1.095 1.698)">
        <g id="Group_64" data-name="Group 64">
          <path id="Path_208" data-name="Path 208" class="cls-1" d="M202.429,320l-36.348-36.588a1.246,1.246,0,0,0-.964-.416.979.979,0,0,0-.826.416,10.766,10.766,0,0,0-1.79,5.544c-.138,4.435,2.065,8.87,6.609,13.582l9.087,9.147a3.95,3.95,0,0,0,2.891,1.247,3.738,3.738,0,0,0,2.891-1.247l.138-.139a.135.135,0,0,1,.138.139l1.515,1.525v.277a4.284,4.284,0,0,0,.826,4.712l8.674,8.731a4.967,4.967,0,0,0,6.884,0A4.657,4.657,0,0,0,202.429,320Zm-1.79,5.266a2.4,2.4,0,0,1-3.442,0l-8.674-8.731a1.724,1.724,0,0,1-.413-1.94,2.73,2.73,0,0,0-.413-3.049l-1.515-1.525a2.65,2.65,0,0,0-3.855,0,2.044,2.044,0,0,1-1.239.554,1.49,1.49,0,0,1-1.239-.554l-9.087-9.147c-7.022-7.068-6.333-12.335-5.37-14.552l35.246,35.479A2.437,2.437,0,0,1,200.639,325.27Z" transform="translate(-162.496 -283)"/>
        </g>
      </g>
      <g id="Group_67" data-name="Group 67" transform="translate(32.458 4.296)">
        <g id="Group_66" data-name="Group 66">
          <path id="Path_209" data-name="Path 209" class="cls-1" d="M194.947,285.187a1.25,1.25,0,0,0-1.652,0l-7.71,7.761a1.271,1.271,0,0,0,0,1.663,1.187,1.187,0,0,0,.826.416.979.979,0,0,0,.826-.416l7.71-7.761A1.271,1.271,0,0,0,194.947,285.187Z" transform="translate(-185.275 -284.875)"/>
        </g>
      </g>
      <g id="Group_69" data-name="Group 69" transform="translate(24.886)">
        <g id="Group_68" data-name="Group 68">
          <path id="Path_210" data-name="Path 210" class="cls-1" d="M193.715,282.087a1.25,1.25,0,0,0-1.652,0l-7.848,7.9a6.166,6.166,0,0,0-1.928,4.3V296.5l-2.2,2.218a1.271,1.271,0,0,0,0,1.663,1.187,1.187,0,0,0,.826.416.979.979,0,0,0,.826-.416l2.478-2.495a1.2,1.2,0,0,0,.413-.832v-2.772a4.625,4.625,0,0,1,1.239-2.633l7.848-7.9A1.271,1.271,0,0,0,193.715,282.087Z" transform="translate(-179.775 -281.775)"/>
        </g>
      </g>
      <g id="Group_71" data-name="Group 71" transform="translate(0 28.966)">
        <g id="Group_70" data-name="Group 70">
          <path id="Path_211" data-name="Path 211" class="cls-1" d="M179.736,307.837a1.25,1.25,0,0,0-1.652,0l-9.775,9.84a2.608,2.608,0,0,1-1.79.693,2.889,2.889,0,0,1-1.79-.693,2.644,2.644,0,0,1-.688-1.8,2.93,2.93,0,0,1,.688-1.8l9.362-9.424a1.271,1.271,0,0,0,0-1.663,1.25,1.25,0,0,0-1.652,0l-9.362,9.424a4.828,4.828,0,0,0-1.377,3.465,5.488,5.488,0,0,0,1.377,3.465,4.551,4.551,0,0,0,3.442,1.386,5.413,5.413,0,0,0,3.442-1.386l9.775-9.84A1.044,1.044,0,0,0,179.736,307.837Z" transform="translate(-161.7 -302.675)"/>
        </g>
      </g>
      <g id="Group_73" data-name="Group 73" transform="translate(27.915 7.761)">
        <g id="Group_72" data-name="Group 72">
          <path id="Path_212" data-name="Path 212" class="cls-1" d="M200.6,287.687a1.25,1.25,0,0,0-1.652,0l-7.848,7.9a3.9,3.9,0,0,1-2.616,1.247h-2.891a.979.979,0,0,0-.826.416l-2.478,2.495a1.271,1.271,0,0,0,0,1.663,1.187,1.187,0,0,0,.826.416.979.979,0,0,0,.826-.416l2.2-2.217h2.341a6.394,6.394,0,0,0,4.406-1.94l7.848-7.9A1.15,1.15,0,0,0,200.6,287.687Z" transform="translate(-181.975 -287.375)"/>
        </g>
      </g>
    </g>
  </g>
</svg>
