<svg xmlns="http://www.w3.org/2000/svg" viewBox="0 0 33.116 47.638">
  <defs>
    <style>
      .cls-1 {
        fill: #ff5200;
      }
    </style>
  </defs>
  <g id="Group_7322" data-name="Group 7322" transform="translate(14989 -1934)">
    <g id="Group_950" data-name="Group 950" transform="translate(-14989 1934)">
      <g id="Group_53" data-name="Group 53">
        <path id="Path_204" data-name="Path 204" class="cls-1" d="M298.319,300.691H297.08V298.9a1.086,1.086,0,0,0-1.1-1.1h-8.536a1.086,1.086,0,0,0-1.1,1.1v1.79H285.1a1.086,1.086,0,0,0-1.1,1.1v16.384a3.555,3.555,0,0,0,3.58,3.58h7.986a3.555,3.555,0,0,0,3.58-3.58V301.793C299.42,301.1,298.87,300.691,298.319,300.691Zm-9.775-.826h6.471v.826h-6.471Zm8.674,18.312a1.528,1.528,0,0,1-1.514,1.514h-7.985a1.528,1.528,0,0,1-1.514-1.514v-15.42h11.152l-.138,15.42Z" transform="translate(-266.101 -274.119)"/>
        <path id="Path_205" data-name="Path 205" class="cls-1" d="M285.319,309.651H284.08V294.23a1.086,1.086,0,0,0-1.1-1.1h-.138v-7.572a10.315,10.315,0,0,0-.275-2.2c-.551-2.341-1.927-2.754-2.754-2.754-.964,0-1.928.826-3.442,2.891a21.826,21.826,0,0,0-1.652,2.478.828.828,0,0,0-.138.551v6.609h-.138a1.086,1.086,0,0,0-1.1,1.1v15.42H272.1a1.086,1.086,0,0,0-1.1,1.1v13.906a3.555,3.555,0,0,0,3.58,3.58h7.985a3.555,3.555,0,0,0,3.58-3.58V310.752C286.42,310.064,285.87,309.651,285.319,309.651Zm-8.674-22.717c1.239-1.928,2.616-3.855,3.167-4.13.551.138.826,1.652.826,2.754v7.572h-4.13v-6.2Zm-1.1,8.261h6.471v14.456h-6.471Zm8.812,29.464a1.528,1.528,0,0,1-1.514,1.514h-7.985a1.528,1.528,0,0,1-1.514-1.514V311.716h11.152v12.942Z" transform="translate(-271 -280.6)"/>
      </g>
    </g>
  </g>
</svg>
