<svg xmlns="http://www.w3.org/2000/svg" viewBox="0 0 63.764 42.133"><defs><style>.a{fill:#ff5200;}</style></defs><path class="a" d="M52.13,649.317a5.985,5.985,0,0,0-4.155,1.661,5.472,5.472,0,0,0,0,8,6.008,6.008,0,0,0,4.155,1.661,5.664,5.664,0,1,0,0-11.326Zm0,8.809a3.15,3.15,0,1,1,0-6.292,3.147,3.147,0,1,1,0,6.292Zm1.506-27.674a1.283,1.283,0,0,0-.87-.327H46.106a1.283,1.283,0,0,0-1.3,1.258V641.7a1.283,1.283,0,0,0,1.3,1.258H56.674a1.283,1.283,0,0,0,1.3-1.258v-6.909a1.242,1.242,0,0,0-.428-.931Zm1.74,9.992H47.4V632.63H52.26l3.116,2.718Zm-34.952,8.872a5.985,5.985,0,0,0-4.155,1.661,5.472,5.472,0,0,0,0,8,6.008,6.008,0,0,0,4.155,1.661,5.664,5.664,0,1,0,0-11.326Zm0,8.809a3.15,3.15,0,1,1,0-6.292,3.147,3.147,0,1,1,0,6.292Zm-8.66-7.261H9.154v-3.348a1.3,1.3,0,0,0-2.6,0v4.606a1.283,1.283,0,0,0,1.3,1.258h3.908a1.259,1.259,0,1,0,0-2.517Zm6.583-6.859a1.283,1.283,0,0,0-1.3-1.258H1.3a1.259,1.259,0,1,0,0,2.517H17.048A1.275,1.275,0,0,0,18.346,644.006ZM3.934,639.463l15.749.088a1.292,1.292,0,0,0,1.311-1.246,1.266,1.266,0,0,0-1.285-1.271L3.96,636.946H3.947a1.259,1.259,0,1,0-.013,2.517Zm2.649-5.713H22.332a1.259,1.259,0,1,0,0-2.517H6.583a1.259,1.259,0,1,0,0,2.517Zm56.7-1.7h0l-9.3-7.463a1.3,1.3,0,0,0-.831-.289H42.223v-4.53a1.283,1.283,0,0,0-1.3-1.258H7.855a1.283,1.283,0,0,0-1.3,1.258v9.212a1.3,1.3,0,0,0,2.6,0v-7.953H39.64v29.838H28.993a1.259,1.259,0,1,0,0,2.517H44.846a1.259,1.259,0,1,0,0-2.517h-2.61V626.816H52.7l8.465,6.8-.091,17.228h-1.35a1.259,1.259,0,1,0,0,2.517h2.636a1.272,1.272,0,0,0,1.3-1.246l.1-19.078A1.314,1.314,0,0,0,63.283,632.051Z" transform="translate(0 -618.51)"/></svg>