<svg xmlns="http://www.w3.org/2000/svg" viewBox="0 0 46.509 30.732"><defs><style>.a{fill:#fff;}</style></defs><path class="a" d="M38.023,640.98a4.365,4.365,0,0,0-3.03,1.212,3.992,3.992,0,0,0,0,5.838,4.382,4.382,0,0,0,3.03,1.212,4.132,4.132,0,1,0,0-8.261Zm0,6.425a2.3,2.3,0,1,1,0-4.59,2.3,2.3,0,1,1,0,4.59Zm1.1-20.185a.936.936,0,0,0-.635-.239H33.629a.936.936,0,0,0-.947.918v7.527a.936.936,0,0,0,.947.918h7.709a.936.936,0,0,0,.947-.918v-5.039a.906.906,0,0,0-.313-.679Zm1.269,7.288H34.576v-5.7h3.542l2.273,1.983ZM14.9,640.98a4.365,4.365,0,0,0-3.03,1.212,3.992,3.992,0,0,0,0,5.838,4.382,4.382,0,0,0,3.03,1.212,4.132,4.132,0,1,0,0-8.261Zm0,6.425a2.3,2.3,0,1,1,0-4.59,2.3,2.3,0,1,1,0,4.59Zm-6.317-5.3h-1.9v-2.442a.947.947,0,0,0-1.894,0v3.359a.936.936,0,0,0,.947.918H8.58a.918.918,0,1,0,0-1.836Zm4.8-5a.936.936,0,0,0-.947-.918H.947a.918.918,0,1,0,0,1.836H12.434A.93.93,0,0,0,13.382,637.107ZM2.869,633.793l11.487.064a.942.942,0,0,0,.956-.909.923.923,0,0,0-.938-.927l-11.487-.064H2.879a.918.918,0,1,0-.009,1.836ZM4.8,629.626H16.289a.918.918,0,1,0,0-1.836H4.8a.918.918,0,1,0,0,1.836Zm41.357-1.239h0l-6.781-5.443a.951.951,0,0,0-.606-.211H30.8v-3.3a.936.936,0,0,0-.947-.918H5.73a.936.936,0,0,0-.947.918v6.719a.947.947,0,0,0,1.894,0v-5.8H28.913v21.764H21.147a.918.918,0,1,0,0,1.836H32.71a.918.918,0,1,0,0-1.836h-1.9V624.568H38.44l6.175,4.957-.066,12.566h-.985a.918.918,0,1,0,0,1.836h1.922a.928.928,0,0,0,.947-.909l.076-13.916A.958.958,0,0,0,46.158,628.387Z" transform="translate(0 -618.51)"/></svg>