<svg xmlns="http://www.w3.org/2000/svg" viewBox="0 0 46.306 42.208">
  <defs>
    <style>
      .cls-1 {
        fill: #ff5200;
      }
    </style>
  </defs>
  <g id="Group_7321" data-name="Group 7321" transform="translate(15137.775 -1937.47)">
    <g id="Group_61" data-name="Group 61" transform="translate(-15137.775 1937.47)">
      <g id="Group_58" data-name="Group 58">
        <g id="Group_57" data-name="Group 57">
          <path id="Path_206" data-name="Path 206" class="cls-1" d="M413.516,292.662a6.828,6.828,0,0,0-4.85-2.055h-7.353v-2.371a3.161,3.161,0,0,0-1.1-2.529h0a3.674,3.674,0,0,0-2.5-1.107H387.39a3.387,3.387,0,0,0-2.5,1.107,3.749,3.749,0,0,0-1.1,2.529v2.371h-7.509a6.828,6.828,0,0,0-4.85,2.055,6.972,6.972,0,0,0-2.034,4.9v22.29a6.972,6.972,0,0,0,2.034,4.9,6.828,6.828,0,0,0,4.85,2.055h32.539a6.828,6.828,0,0,0,4.85-2.055,6.972,6.972,0,0,0,2.034-4.9v-22.29A7.869,7.869,0,0,0,413.516,292.662ZM385.2,288.236h0a2.013,2.013,0,0,1,.626-1.423,1.974,1.974,0,0,1,1.408-.632h10.325a1.519,1.519,0,0,1,1.408.632h0a1.959,1.959,0,0,1,.626,1.265v2.371h-1.721v-.79a2.2,2.2,0,0,0-.782-1.581h0a3.259,3.259,0,0,0-1.721-.632h-5.945a3.259,3.259,0,0,0-1.721.632,2.2,2.2,0,0,0-.782,1.581v.79H385.2v-2.213Zm10.951,1.739v.79h-7.509v-.79a.554.554,0,0,1,.156-.316c.156-.158.313-.158.626-.158h5.945c.156,0,.469.158.626.158h0C396.151,289.659,396.151,289.817,396.151,289.975Zm16.27,33.672a5.068,5.068,0,0,1-3.6,1.581H376.283a5.068,5.068,0,0,1-3.6-1.581,5.172,5.172,0,0,1-1.564-3.636v-22.29a5.172,5.172,0,0,1,1.564-3.636,5.068,5.068,0,0,1,3.6-1.581h32.7a5.068,5.068,0,0,1,3.6,1.581,5.172,5.172,0,0,1,1.564,3.636v22.29h0A9.743,9.743,0,0,1,412.42,323.647Z" transform="translate(-369.4 -284.6)"/>
        </g>
      </g>
      <g id="Group_60" data-name="Group 60" transform="translate(11.107 11.856)">
        <g id="Group_59" data-name="Group 59">
          <path id="Path_207" data-name="Path 207" class="cls-1" d="M400.279,307.592l-1.721-1.739c-.156-.158-.626-.316-.782-.158l-3.129.949-3.754-4.11,8.291-4.742c.156,0,.156-.158.313-.158a.964.964,0,0,0,0-1.265L397.306,294c-.156-.158-.626-.316-.782-.158L386.043,297l-3.6-3.794v-.158a3.377,3.377,0,0,0-4.693,0l-.156.158-.156.158a3.465,3.465,0,0,0,0,4.743l.156.158,3.755,3.636-3.129,10.592a.7.7,0,0,0,.156.79l2.347,2.371.156.158c.469.158.939.158,1.1-.316l4.693-8.537,4.067,3.794-.939,3.162a.7.7,0,0,0,.156.79l1.721,1.739.156.158c.469.158.939.158,1.1-.316l2.19-4.11h0l.313-.632.626-.316h.156l3.911-2.213c.156,0,.156-.158.313-.158A1.2,1.2,0,0,0,400.279,307.592Zm-5.006,2.055-.782.474c-.156.158-.313.158-.313.316l-.469.79-1.721,3.162-.626-.632.939-3.162c.156-.316,0-.632-.313-.948l-5.162-4.9a.944.944,0,0,0-1.251,0l-.156.158-4.693,8.378-1.1-1.107,3.129-10.592c.156-.316,0-.632-.313-.949l-4.067-3.952h0a1.717,1.717,0,0,1-.469-1.107,2.116,2.116,0,0,1,.469-1.265h0a1.766,1.766,0,0,1,1.251-.474,1.414,1.414,0,0,1,1.1.474h0l3.911,4.268a.541.541,0,0,0,.782.158l10.481-3.162,1.1,1.107-8.448,4.743a.7.7,0,0,0-.313,1.107l.156.158,4.85,5.217a.541.541,0,0,0,.782.158l3.129-.949.626.632Z" transform="translate(-376.5 -292.1)"/>
        </g>
      </g>
    </g>
  </g>
</svg>
