<svg xmlns="http://www.w3.org/2000/svg" viewBox="0 0 20.374 18.574"><defs><style>.a{fill:#ff5200;}</style></defs><path class="a" d="M18.888,31.661a5.039,5.039,0,0,0-8.193.608,8.11,8.11,0,0,0-.507.849,8.1,8.1,0,0,0-.507-.849,5.143,5.143,0,0,0-4.268-2.433,5.1,5.1,0,0,0-3.925,1.825A6.5,6.5,0,0,0,0,35.893a7.936,7.936,0,0,0,2.083,5.121A47,47,0,0,0,7.3,46.04c.788.693,1.6,1.41,2.472,2.194l.026.024a.583.583,0,0,0,.786,0l.026-.024c.868-.784,1.683-1.5,2.472-2.194a46.994,46.994,0,0,0,5.213-5.026,7.936,7.936,0,0,0,2.083-5.121A6.5,6.5,0,0,0,18.888,31.661ZM12.3,45.1c-.68.6-1.379,1.213-2.117,1.874C9.45,46.315,8.75,45.7,8.07,45.1c-4.141-3.641-6.877-6.047-6.877-9.209a5.243,5.243,0,0,1,1.188-3.418,3.932,3.932,0,0,1,3.03-1.407,4,4,0,0,1,3.294,1.913,7.4,7.4,0,0,1,.914,1.875.591.591,0,0,0,1.135,0,7.4,7.4,0,0,1,.914-1.875,4,4,0,0,1,3.294-1.913,3.932,3.932,0,0,1,3.03,1.407,5.243,5.243,0,0,1,1.188,3.418C19.181,39.055,16.445,41.461,12.3,45.1Z" transform="translate(0 -29.836)"/></svg>