<svg xmlns="http://www.w3.org/2000/svg" viewBox="0 0 50.32 52.672">
  <defs>
    <style>
      .cls-1 {
        fill: #ff5200;
      }
    </style>
  </defs>
  <g id="Group_7320" data-name="Group 7320" transform="translate(15275.602 -1934)">
    <g id="Group_50" data-name="Group 50" transform="translate(-15275.602 1934)">
      <g id="Group_29" data-name="Group 29" transform="translate(11.271 25.819)">
        <g id="Group_28" data-name="Group 28">
          <path id="Path_199" data-name="Path 199" class="cls-1" d="M73.838,300.1a7.247,7.247,0,0,0-7.138,7.359,7.537,7.537,0,0,0,3.006,6.068.736.736,0,0,0,.5.129h7.013a.735.735,0,0,0,.5-.129,7.537,7.537,0,0,0,3.006-6.068A6.967,6.967,0,0,0,73.838,300.1Zm3.131,11.619H70.457a5.511,5.511,0,0,1-2-4.26,5.262,5.262,0,1,1,10.519,0A4.826,4.826,0,0,1,76.969,311.719Z" transform="translate(-66.7 -300.1)"/>
        </g>
      </g>
      <g id="Group_31" data-name="Group 31" transform="translate(4.508 5.938)">
        <g id="Group_30" data-name="Group 30">
          <path id="Path_200" data-name="Path 200" class="cls-1" d="M66.059,284.7H62.177a.9.9,0,0,0,0,1.807h3.882a.869.869,0,0,0,.877-.9A.957.957,0,0,0,66.059,284.7Z" transform="translate(-61.3 -284.7)"/>
        </g>
      </g>
      <g id="Group_33" data-name="Group 33" transform="translate(1.378 6.068)">
        <g id="Group_32" data-name="Group 32">
          <ellipse id="Ellipse_5" data-name="Ellipse 5" class="cls-1" cx="0.877" cy="0.904" rx="0.877" ry="0.904"/>
        </g>
      </g>
      <g id="Group_35" data-name="Group 35" transform="translate(0.376 1.033)">
        <g id="Group_34" data-name="Group 34">
          <ellipse id="Ellipse_6" data-name="Ellipse 6" class="cls-1" cx="0.877" cy="0.904" rx="0.877" ry="0.904"/>
        </g>
      </g>
      <g id="Group_37" data-name="Group 37" transform="translate(0 12.006)">
        <g id="Group_36" data-name="Group 36">
          <ellipse id="Ellipse_7" data-name="Ellipse 7" class="cls-1" cx="0.877" cy="0.904" rx="0.877" ry="0.904"/>
        </g>
      </g>
      <g id="Group_39" data-name="Group 39" transform="translate(8.039 1.445)">
        <g id="Group_38" data-name="Group 38">
          <path id="Path_201" data-name="Path 201" class="cls-1" d="M67.351,282.356l-1.878-1.033a.958.958,0,0,0-1.252.387A1.02,1.02,0,0,0,64.6,283l1.878,1.033a.451.451,0,0,0,.376.129.687.687,0,0,0,.751-.516A.8.8,0,0,0,67.351,282.356Z" transform="translate(-64.119 -281.22)"/>
        </g>
      </g>
      <g id="Group_41" data-name="Group 41" transform="translate(5.26)">
        <g id="Group_40" data-name="Group 40">
          <ellipse id="Ellipse_8" data-name="Ellipse 8" class="cls-1" cx="0.877" cy="0.904" rx="0.877" ry="0.904"/>
        </g>
      </g>
      <g id="Group_43" data-name="Group 43" transform="translate(8.79 9.19)">
        <g id="Group_42" data-name="Group 42">
          <path id="Path_202" data-name="Path 202" class="cls-1" d="M67.951,287.582a.829.829,0,0,0-1.252-.129l-1.628,1.42a.889.889,0,0,0-.125,1.291.752.752,0,0,0,.751.387c.25,0,.376-.129.626-.258l1.628-1.42A1,1,0,0,0,67.951,287.582Z" transform="translate(-64.719 -287.219)"/>
        </g>
      </g>
      <g id="Group_45" data-name="Group 45" transform="translate(6.387 12.652)">
        <g id="Group_44" data-name="Group 44">
          <ellipse id="Ellipse_9" data-name="Ellipse 9" class="cls-1" cx="0.877" cy="0.904" rx="0.877" ry="0.904"/>
        </g>
      </g>
      <g id="Group_47" data-name="Group 47" transform="translate(17.532 5.164)">
        <g id="Group_46" data-name="Group 46">
          <ellipse id="Ellipse_10" data-name="Ellipse 10" class="cls-1" cx="0.877" cy="0.904" rx="0.877" ry="0.904"/>
        </g>
      </g>
      <g id="Group_49" data-name="Group 49" transform="translate(1.002 1.549)">
        <g id="Group_48" data-name="Group 48">
          <path id="Path_203" data-name="Path 203" class="cls-1" d="M107.089,300.535a7.3,7.3,0,0,0-9.893-3.615c-.626.387-1.252.775-1.753,1.162l-.5-1.033v-.129l.125-.129,3.506-1.678c.125,0,.125,0,.25.129a.856.856,0,0,0,1.252.387.908.908,0,0,0,.376-1.291,1.8,1.8,0,0,0-1.127-1.033,2.037,2.037,0,0,0-1.5.129l-1.127.516a18.877,18.877,0,0,0-7.263-7.229,18.557,18.557,0,0,0-9.768-2.324v-1.162a1.956,1.956,0,0,0-1.878-1.936H74.029a1.956,1.956,0,0,0-1.878,1.936v9.037H70.272a2.229,2.229,0,0,0-2.129,2.195v3.486a17.957,17.957,0,0,0-3.506,29.434,2.791,2.791,0,0,0-1,2.195,2.823,2.823,0,0,0,2.755,2.84H84.924a2.823,2.823,0,0,0,2.755-2.84,2.791,2.791,0,0,0-1-2.195,18.038,18.038,0,0,0,6.136-13.555c0-9.811-7.764-17.815-17.282-17.815a18.229,18.229,0,0,0-5.886,1.033v-2.711a.274.274,0,0,1,.25-.258H81.041a.274.274,0,0,1,.25.258.877.877,0,1,0,1.753,0,2.229,2.229,0,0,0-2.129-2.195H79.038v-6.068a16.582,16.582,0,0,1,8.891,2.195,17.616,17.616,0,0,1,6.512,6.455l-.25.387a2,2,0,0,0-.877,2.711l.877,1.807a7.905,7.905,0,0,0-.5,7.488,7.447,7.447,0,0,0,6.762,4.389,6.625,6.625,0,0,0,3.131-.775A7.733,7.733,0,0,0,107.089,300.535Zm-31.182-2.582a15.635,15.635,0,0,1,15.4,15.879A16.192,16.192,0,0,1,84.8,326.871a.965.965,0,0,0,.376,1.807,1.033,1.033,0,0,1,0,2.066H66.515a1.033,1.033,0,0,1,0-2.066H80.666a.9.9,0,0,0,0-1.807h-13.9a16,16,0,0,1-6.387-12.91A15.77,15.77,0,0,1,75.907,297.954ZM77.785,285.3h0v6.971H74.029v-9.037h3.757V285.3Zm27.926,20.4a6.209,6.209,0,0,1-2.88,3.357,5.289,5.289,0,0,1-2.379.516,5.568,5.568,0,0,1-5.134-3.357,5.936,5.936,0,0,1-.25-4.389,6.15,6.15,0,0,1,.877-1.549h0a5.058,5.058,0,0,1,2-1.678,5.289,5.289,0,0,1,2.379-.516,5.8,5.8,0,0,1,5.385,7.617Z" transform="translate(-58.5 -281.3)"/>
        </g>
      </g>
    </g>
  </g>
</svg>
