<?xml version="1.0" encoding="utf-8"?>
<!-- Generator: Adobe Illustrator 22.1.0, SVG Export Plug-In . SVG Version: 6.00 Build 0)  -->
<svg version="1.1" id="Layer_1" xmlns="http://www.w3.org/2000/svg" xmlns:xlink="http://www.w3.org/1999/xlink" x="0px" y="0px"
	 viewBox="0 0 52.1 44.7" style="enable-background:new 0 0 52.1 44.7;" xml:space="preserve">
<style type="text/css">
	.st0{fill:#FF5200;}
</style>
<g>
	<path class="st0" d="M48,32.4c-0.7,0-1.4,0.2-1.9,0.6c-0.9,0.7-2,1.3-3.2,1.9c-1-3.6-2.2-9.6-1.6-14.4l0-0.1c0-2.4,1.1-2.8,1.5-2.9
		l4.1,1.8c0.1,0,0.9,0.4,1.9,0.4c1,0,1.8-0.3,2.3-1c0.7-0.8,1-2.1,0.8-3.8l-0.1-0.3c-1.6-3.6-4.3-8.5-4.5-8.7l-0.1-0.1
		c0,0-0.8-1.1-0.5-3.5c0.1-0.5,0.1-1.1-0.3-1.5c-0.2-0.2-0.5-0.4-0.8-0.4c-0.4,0-1.2,0-3.3,3.3c-0.9,0-2.8,0.2-4.2,2
		c-0.5,0.7-4.5,4.7-7,7.2c0,0-1.3,1.2-2.8,1.2L28,14c-1.2,0-2.5-0.5-3.8-1c-0.6-0.2-1.2-0.5-1.9-0.7c-1.5-0.4-2.9-0.6-3.8-0.6
		c-0.6-1.3-2.5-4-6.9-4.6c-4.9-0.6-6.2,4.5-6.2,7.2l0,0.2C5.6,15,6,18.5,2,19.4l-1.8,0.4L1.6,21c0.1,0.1,2,1.7,4.5,1.7
		c1.7,0,4.2-0.8,6-4.8c1.2-2.5,1.9-3.2,2.1-3.4c0.1,0.2,0.2,0.5,0.3,0.9c-0.3,0.8-1.1,3.1-1.1,6.3c0,3,0.7,4.6,1.1,5.4l-2.6,7.5
		c-1-0.5-1.9-1-2.6-1.6c-0.6-0.4-1.2-0.6-1.9-0.6c-1,0-2,0.5-2.6,1.3c-1.1,1.4-0.8,3.5,0.7,4.6c5.1,3.8,13.4,6.1,22.3,6.1
		c8.9,0,17.2-2.3,22.3-6.1c0.7-0.5,1.1-1.3,1.3-2.1c0.1-0.9-0.1-1.7-0.6-2.4C50,32.9,49,32.4,48,32.4z M16.3,27.4l0.1-0.5l-0.3-0.4
		c0,0-1-1.4-1-4.7c0-3.5,1.1-5.8,1.1-5.8l0.1-0.2l0-0.3c-0.2-1.4-0.8-2.8-2.1-2.8c-1.2,0-2.4,1.3-3.8,4.5c-1.1,2.5-2.6,3.7-4.3,3.7
		c-0.6,0-1.3-0.2-1.8-0.4c2.8-1.5,3.3-4.5,3-6.1C7.4,13.7,7.7,9,11,9c0.2,0,0.3,0,0.5,0c4.4,0.5,5.5,3.8,5.6,3.9l0.2,0.7l0.9,0
		c0.6,0,2.1,0,3.6,0.5c0.6,0.2,1.2,0.4,1.8,0.6c1.4,0.5,2.8,1.1,4.3,1.1l0.2,0c2.3,0,4.1-1.7,4.1-1.7c0.7-0.6,6.4-6.3,7.2-7.4
		c0.8-1.1,1.8-1.3,2.5-1.3c0.2,0,0.4,0,0.4,0l0.6,0.1l0.3-0.5c0.4-0.7,0.9-1.4,1.3-1.9c0,2.2,0.7,3.3,1,3.6c0.3,0.6,2.8,5,4.3,8.3
		c0.1,1,0,1.8-0.3,2.2c-0.1,0.1-0.3,0.3-0.9,0.3c-0.6,0-1.2-0.2-1.2-0.2l-4.4-1.9h-0.2c-1.2,0-3.5,1-3.5,4.7
		c-0.7,5.3,0.7,11.6,1.7,15.3c-0.6,0.2-1.2,0.4-1.8,0.6c-0.3-1-0.7-2.1-1.3-3.2c-2.3-4.8-5.8-7.4-10.1-7.4c-7,0-10.8,6.5-12.4,10.5
		c-0.7-0.2-1.4-0.5-2-0.7L16.3,27.4z M37.5,36.7c-3,0.7-6.4,1.1-9.9,1.1c-3.6,0-7.1-0.4-10.2-1.2c1.5-3.6,4.8-9.2,10.6-9.2
		C33.5,27.5,36.3,32.9,37.5,36.7z M48.8,36.8c-2.1,1.6-4.9,2.9-8.1,3.9l-2.1,0.6c-3.4,0.8-7.1,1.2-10.9,1.2
		c-8.5,0-16.4-2.1-21.2-5.7c-0.6-0.5-0.7-1.3-0.3-2c0.3-0.4,0.7-0.6,1.1-0.6c0.3,0,0.6,0.1,0.8,0.3c0.9,0.7,2,1.3,3.1,1.9
		c0.5,0.3,1.1,0.5,1.7,0.8c0.6,0.3,1.3,0.5,2,0.7c0.6,0.2,1.2,0.4,1.8,0.5c3.3,0.8,7,1.3,10.9,1.3c3.7,0,7.2-0.4,10.4-1.2
		c0.6-0.1,1.2-0.3,1.8-0.5c0.6-0.2,1.2-0.4,1.8-0.6c0.6-0.2,1.2-0.4,1.7-0.7c1.4-0.6,2.7-1.4,3.8-2.2c0.6-0.4,1.5-0.3,2,0.3
		c0.2,0.3,0.3,0.7,0.3,1C49.3,36.2,49.1,36.6,48.8,36.8z"/>
</g>
</svg>
