<svg xmlns="http://www.w3.org/2000/svg" viewBox="0 0 61.685 20.864">
  <defs>
    <style>
      .cls-1 {
        fill: #ff5200;
      }
    </style>
  </defs>
  <g id="Group_7324" data-name="Group 7324" transform="translate(14724 -1951)">
    <g id="Group_1048" data-name="Group 1048" transform="translate(-14724 1951)">
      <g id="Group_973" data-name="Group 973">
        <path id="Path_739" data-name="Path 739" class="cls-1" d="M383.888,388.52a.445.445,0,0,0-.264-.4.837.837,0,0,0-.4-.066,56.858,56.858,0,0,0-5.74-.726c-1.517-.132-3.1-.2-4.618-.264a50.3,50.3,0,0,0-8.906.33,24.86,24.86,0,0,0-5.344,1.122c-.858.264-1.715.594-2.639.924a8.363,8.363,0,0,1-4.222.4,15.541,15.541,0,0,1-2.507-.66,38.978,38.978,0,0,0-4.552-1.253,52.683,52.683,0,0,0-8.972-.792,52.143,52.143,0,0,0-6.531.33c-1.715.2-3.431.462-5.146.66a6.176,6.176,0,0,0-1.056.264.418.418,0,0,0-.33.4c-.066.99-.066,2.045-.066,3.035,0,.132.066.33.066.462s.066.2.2.264l.4.2a3.213,3.213,0,0,1,1.056,1.583c.132.462.264.924.4,1.319.066.264.2.528.264.858.264,1.319.594,2.639.858,3.958a13.91,13.91,0,0,0,1.253,3.628,6.2,6.2,0,0,0,2.969,2.837,14.652,14.652,0,0,0,2.573.726,19.1,19.1,0,0,0,4.75.132,23.818,23.818,0,0,0,4.75-.792,9.523,9.523,0,0,0,3.167-1.583,14.857,14.857,0,0,0,3.365-4.222,37.148,37.148,0,0,0,2.045-5.08c.132-.528.33-.99.462-1.517a1.932,1.932,0,0,1,1.583-1.319,2.958,2.958,0,0,1,.726-.066,1.911,1.911,0,0,1,1.517.66,2.725,2.725,0,0,1,.462.726c.2.462.4.99.594,1.451a30.464,30.464,0,0,0,2.7,6.2,9.08,9.08,0,0,0,3.892,3.826,12.767,12.767,0,0,0,3.76,1.319,25.7,25.7,0,0,0,5.938.4,16.61,16.61,0,0,0,3.563-.528,5.722,5.722,0,0,0,3.035-1.913,9.585,9.585,0,0,0,1.188-2.111,30.58,30.58,0,0,0,1.451-4.948c.2-.792.4-1.649.594-2.441a8.788,8.788,0,0,0,.33-1.253,3.361,3.361,0,0,1,.462-1.122,2.874,2.874,0,0,1,.924-.858c.2-.066.264-.2.33-.4,0-.132.066-.264.066-.4v-1.781a3.044,3.044,0,0,1-.4-1.517m-58.847,1.913c-.66,0-1.187-.132-1.187-.264s.528-.264,1.188-.264,1.188.132,1.188.264-.528.264-1.187.264m22.826,6.4a18.066,18.066,0,0,1-1.979,4.948,10.263,10.263,0,0,1-1.781,2.309,7.241,7.241,0,0,1-3.365,1.781,18.724,18.724,0,0,1-7.653.462,12.478,12.478,0,0,1-1.517-.33,3.947,3.947,0,0,1-2.375-1.715,9.5,9.5,0,0,1-1.319-3.167c-.33-1.451-.528-2.969-.726-4.486a11.869,11.869,0,0,1,.066-2.639,9.109,9.109,0,0,1,.2-1.319,3.668,3.668,0,0,1,2.837-2.9,29.709,29.709,0,0,1,4.222-.726c1.056-.066,2.111-.132,2.837-.2a27.84,27.84,0,0,1,6.465.66,7.754,7.754,0,0,1,2.375.792,5.978,5.978,0,0,1,1.056.726,2.943,2.943,0,0,1,.924,1.715,14.4,14.4,0,0,1-.264,4.09m31.469-.66a18.156,18.156,0,0,1-1.187,6.2,6.642,6.642,0,0,1-1.319,2.177,5.315,5.315,0,0,1-2.507,1.253,12.841,12.841,0,0,1-3.562.4,24.566,24.566,0,0,1-5.344-.594,7.378,7.378,0,0,1-4.222-2.639,15.291,15.291,0,0,1-2.837-6,10.209,10.209,0,0,1-.264-4.486,2.789,2.789,0,0,1,1.913-2.243,18.812,18.812,0,0,1,3.167-.858,34.351,34.351,0,0,1,3.628-.528c.99-.066,1.913-.066,2.573-.132a32.6,32.6,0,0,1,6.993.924c.4.132.792.33,1.187.462a1.833,1.833,0,0,1,.792.792,9.345,9.345,0,0,1,.528,1.187,5.621,5.621,0,0,1,.264,1.517,8.645,8.645,0,0,1,.2,2.573m2.045-5.74c-.66,0-1.187-.132-1.187-.264s.528-.264,1.188-.264,1.188.132,1.188.264-.528.264-1.187.264" transform="translate(-322.6 -387.006)"/>
      </g>
    </g>
  </g>
</svg>
