<svg xmlns="http://www.w3.org/2000/svg" viewBox="0 0 47.5 27.887"><defs><style>.a{fill:#fff;}</style></defs><path class="a" d="M44.162,8H3.338C1.5,8,0,9.2,0,10.673V33.214c0,1.474,1.5,2.673,3.338,2.673H44.162c1.841,0,3.338-1.2,3.338-2.673V10.673C47.5,9.2,46,8,44.162,8Zm1.755,25.214a1.611,1.611,0,0,1-1.755,1.405H3.338a1.611,1.611,0,0,1-1.755-1.405V10.673A1.611,1.611,0,0,1,3.338,9.268H44.162a1.611,1.611,0,0,1,1.755,1.405Z" transform="translate(0 -8)"/><path class="a" d="M13.917,37H6.792a.65.65,0,1,0,0,1.268h7.125a.65.65,0,1,0,0-1.268Z" transform="translate(-1.25 -18.62)"/><path class="a" d="M26.917,37H19.792a.65.65,0,1,0,0,1.268h7.125a.65.65,0,1,0,0-1.268Z" transform="translate(-3.958 -18.62)"/><path class="a" d="M7.583,42H6.792a.65.65,0,1,0,0,1.268h.792a.65.65,0,1,0,0-1.268Z" transform="translate(-1.25 -20.451)"/><path class="a" d="M13.375,42H11.792a.65.65,0,1,0,0,1.268h1.583a.65.65,0,1,0,0-1.268Z" transform="translate(-2.292 -20.451)"/><path class="a" d="M18.583,42h-.792a.65.65,0,1,0,0,1.268h.792a.65.65,0,1,0,0-1.268Z" transform="translate(-3.542 -20.451)"/><path class="a" d="M24.375,42H22.792a.65.65,0,1,0,0,1.268h1.583a.65.65,0,1,0,0-1.268Z" transform="translate(-4.583 -20.451)"/><path class="a" d="M28.23,42.188a.556.556,0,0,0,0,.9.951.951,0,0,0,1.124,0,.556.556,0,0,0,0-.9A.986.986,0,0,0,28.23,42.188Z" transform="translate(-5.833 -20.456)"/><path class="a" d="M45.083,33a6.583,6.583,0,0,0-2.771.6,6.583,6.583,0,0,0-2.771-.6C36.487,33,34,34.99,34,37.437s2.487,4.437,5.542,4.437a6.583,6.583,0,0,0,2.771-.6,6.583,6.583,0,0,0,2.771.6c3.055,0,5.542-1.99,5.542-4.437S48.138,33,45.083,33ZM43.5,37.437a2.89,2.89,0,0,1-1.188,2.258,2.74,2.74,0,0,1,0-4.515A2.89,2.89,0,0,1,43.5,37.437Zm-7.917,0c0-1.747,1.776-3.169,3.958-3.169a4.781,4.781,0,0,1,1.415.219,3.784,3.784,0,0,0,0,5.9,4.781,4.781,0,0,1-1.415.219C37.359,40.606,35.583,39.184,35.583,37.437Zm9.5,3.169a4.781,4.781,0,0,1-1.415-.219,3.784,3.784,0,0,0,0-5.9,4.781,4.781,0,0,1,1.415-.219c2.183,0,3.958,1.422,3.958,3.169S47.266,40.606,45.083,40.606Z" transform="translate(-7.083 -17.155)"/><path class="a" d="M7.785,24.873h10.68a1.64,1.64,0,0,0,1.785-1.429V17.429A1.64,1.64,0,0,0,18.465,16H7.785A1.64,1.64,0,0,0,6,17.429v6.015A1.64,1.64,0,0,0,7.785,24.873Zm2.965-3.8H7.583V19.8H10.75ZM7.583,23.444V22.338H10.75v1.106a1.105,1.105,0,0,0,.021.162H7.785A.185.185,0,0,1,7.583,23.444ZM18.667,21.07H15.5V19.964a.185.185,0,0,1,.2-.162h2.763c.069,0,.135-.01.2-.016V21.07Zm-.2,2.535H15.479a1.106,1.106,0,0,0,.021-.162V22.338h3.167v1.106A.185.185,0,0,1,18.465,23.606Zm0-6.338a.185.185,0,0,1,.2.162v.944a.185.185,0,0,1-.2.162H15.7a1.64,1.64,0,0,0-1.785,1.429v3.48a.185.185,0,0,1-.2.162h-1.18a.185.185,0,0,1-.2-.162V17.429a.185.185,0,0,1,.2-.162Zm-10.68,0h2.985a1.106,1.106,0,0,0-.021.162v1.106H7.583V17.429A.185.185,0,0,1,7.785,17.268Z" transform="translate(-1.25 -10.93)"/></svg>