<svg xmlns="http://www.w3.org/2000/svg" viewBox="0 0 31.92 47.1">
  <defs>
    <style>
      .cls-1 {
        fill: #ff5200;
      }
    </style>
  </defs>
  <g id="Group_7325" data-name="Group 7325" transform="translate(14568 -1937)">
    <g id="Group_1055" data-name="Group 1055" transform="translate(-15121.8 1569.9)">
      <g id="Group_964" data-name="Group 964" transform="translate(553.8 367.1)">
        <g id="watch_2_">
          <g id="Group_963" data-name="Group 963">
            <path id="Path_737" data-name="Path 737" class="cls-1" d="M578.043,414.2H561.477L559.514,403a16.207,16.207,0,0,1,0-24.7l1.963-11.2h16.566l1.963,11.2a16.207,16.207,0,0,1,0,24.7Zm-15.123-1.789h13.622l1.789-10.332.231-.231a14.363,14.363,0,0,0,0-22.4l-.231-.231-1.789-10.332H562.92l-1.789,10.332-.231.231a14.363,14.363,0,0,0,0,22.4l.231.231Zm6.811-9.524a12.237,12.237,0,1,1,12.237-12.237A12.243,12.243,0,0,1,569.731,402.887Zm0-22.684a10.447,10.447,0,1,0,10.447,10.447A10.445,10.445,0,0,0,569.731,380.2Z" transform="translate(-553.8 -367.1)"/>
          </g>
        </g>
      </g>
    </g>
  </g>
</svg>
