<svg xmlns="http://www.w3.org/2000/svg" viewBox="0 0 24.636 14.464"><defs><style>.a{fill:#ff5200;}</style></defs><g transform="translate(-752 -638)"><path class="a" d="M22.9,8H1.732A1.59,1.59,0,0,0,0,9.386V21.078a1.59,1.59,0,0,0,1.732,1.386H22.9a1.59,1.59,0,0,0,1.732-1.386V9.386A1.59,1.59,0,0,0,22.9,8Zm.91,13.078a.836.836,0,0,1-.91.729H1.732a.836.836,0,0,1-.91-.729V9.386a.836.836,0,0,1,.91-.729H22.9a.836.836,0,0,1,.91.729Z" transform="translate(752 630)"/><path class="a" d="M10.106,37h-3.7a.337.337,0,1,0,0,.657h3.7a.337.337,0,1,0,0-.657Z" transform="translate(748.464 610.533)"/><path class="a" d="M23.106,37h-3.7a.337.337,0,1,0,0,.657h3.7a.337.337,0,1,0,0-.657Z" transform="translate(740.802 610.533)"/><path class="a" d="M6.821,42H6.411a.337.337,0,1,0,0,.657h.411a.337.337,0,1,0,0-.657Z" transform="translate(748.464 607.177)"/><path class="a" d="M12.232,42h-.821a.337.337,0,1,0,0,.657h.821a.337.337,0,1,0,0-.657Z" transform="translate(745.517 607.177)"/><path class="a" d="M17.821,42h-.411a.337.337,0,1,0,0,.657h.411a.337.337,0,1,0,0-.657Z" transform="translate(741.98 607.177)"/><path class="a" d="M23.232,42h-.821a.337.337,0,1,0,0,.657h.821a.337.337,0,1,0,0-.657Z" transform="translate(739.033 607.177)"/><path class="a" d="M28.119,42.1a.288.288,0,0,0,0,.467.493.493,0,0,0,.583,0,.288.288,0,0,0,0-.467A.511.511,0,0,0,28.119,42.1Z" transform="translate(735.497 607.168)"/><path class="a" d="M39.749,33a3.414,3.414,0,0,0-1.437.311A3.414,3.414,0,0,0,36.874,33,2.639,2.639,0,0,0,34,35.3a2.639,2.639,0,0,0,2.874,2.3,3.414,3.414,0,0,0,1.437-.311,3.414,3.414,0,0,0,1.437.311,2.639,2.639,0,0,0,2.874-2.3A2.639,2.639,0,0,0,39.749,33Zm-.821,2.3a1.5,1.5,0,0,1-.616,1.171,1.421,1.421,0,0,1,0-2.342A1.5,1.5,0,0,1,38.927,35.3Zm-4.106,0a1.885,1.885,0,0,1,2.053-1.644,2.48,2.48,0,0,1,.734.113,1.962,1.962,0,0,0,0,3.06,2.48,2.48,0,0,1-.734.113A1.885,1.885,0,0,1,34.821,35.3Zm4.927,1.644a2.48,2.48,0,0,1-.734-.113,1.962,1.962,0,0,0,0-3.06,2.48,2.48,0,0,1,.734-.113A1.885,1.885,0,0,1,41.8,35.3,1.885,1.885,0,0,1,39.749,36.945Z" transform="translate(731.961 613.218)"/><path class="a" d="M6.926,20.6h5.539a.85.85,0,0,0,.926-.741v-3.12A.85.85,0,0,0,12.465,16H6.926A.85.85,0,0,0,6,16.741v3.12A.85.85,0,0,0,6.926,20.6ZM8.464,18.63H6.821v-.657H8.464ZM6.821,19.861v-.574H8.464v.574a.573.573,0,0,0,.011.084H6.926A.1.1,0,0,1,6.821,19.861ZM12.57,18.63H10.927v-.574a.1.1,0,0,1,.1-.084h1.433c.036,0,.07-.005.1-.009v.666Zm-.1,1.315H10.917a.574.574,0,0,0,.011-.084v-.574H12.57v.574A.1.1,0,0,1,12.465,19.945Zm0-3.287a.1.1,0,0,1,.1.084v.49a.1.1,0,0,1-.1.084H11.032a.85.85,0,0,0-.926.741v1.8a.1.1,0,0,1-.1.084H9.39a.1.1,0,0,1-.1-.084v-3.12a.1.1,0,0,1,.1-.084Zm-5.539,0H8.474a.573.573,0,0,0-.011.084v.574H6.821v-.574A.1.1,0,0,1,6.926,16.657Z" transform="translate(748.464 624.63)"/></g></svg>